<?xml version="1.0" standalone="no"?>
<!DOCTYPE svg PUBLIC "-//W3C//DTD SVG 20010904//EN"
 "http://www.w3.org/TR/2001/REC-SVG-20010904/DTD/svg10.dtd">
<svg version="1.0" xmlns="http://www.w3.org/2000/svg"
 width="150.000000pt" height="150.000000pt" viewBox="0 0 150.000000 150.000000"
 preserveAspectRatio="xMidYMid meet">
<metadata>
Created by potrace 1.15, written by Peter Selinger 2001-2017
</metadata>
<g transform="translate(0.000000,150.000000) scale(0.100000,-0.100000)"
fill="#000000" stroke="none">
<path d="M935 1272 c-69 -42 -123 -136 -145 -251 -9 -52 -21 -61 -77 -61 -86
0 -153 47 -153 109 0 24 -30 43 -49 31 -10 -5 -12 -23 -9 -59 9 -93 76 -141
198 -141 l70 0 0 -39 c0 -21 -3 -59 -6 -83 l-6 -45 -68 -5 c-159 -12 -281
-118 -282 -247 0 -113 83 -165 206 -129 78 24 160 135 188 259 13 58 30 62
103 28 75 -36 116 -97 117 -176 0 -48 -13 -76 -54 -119 -58 -62 -9 -101 55
-44 50 44 71 104 65 185 -10 115 -78 194 -203 232 l-56 17 7 91 c3 49 7 90 8
90 0 0 31 15 67 33 73 36 141 98 170 154 28 55 26 138 -4 166 -30 28 -99 30
-142 4z m79 -48 c20 -8 21 -56 2 -93 -18 -33 -93 -104 -134 -125 l-30 -16 9
38 c24 90 66 164 108 187 32 17 26 16 45 9z m-264 -556 c-1 -16 -33 -105 -50
-139 -41 -81 -90 -119 -154 -119 -68 0 -91 55 -54 128 28 55 86 99 155 118 43
11 103 18 103 12z"/>
</g>
</svg>
